Patient4_TMGait_0pt6_01_left_28_EMG.mot
version=1
nRows=27
nColumns=33
inDegrees=no
endheader
time	1LAddLong	2LGlutMax	3LGlutMed	4LIliopsoas	5LSemiMemb	6LBicFemLong	7LRecFem	8LVastMed	9LVastLat	10LGasMed	11LTibAnt	12lTibPost	13LPeroneusLong	14LSol	15LExtDigLong	16LFlexDigLong	17RAddLong	18RGlutMax	19RGlutMed	20RIliopsoas	21RSemiMemb	22RBicFemLong	23RRecFem	24RVastMed	25RVastLat	26RGasMed	27RTibAnt	28RTibPost	29RPeroneusLong	30RSol	31RExtDigLong	32RFlexDigLong
34.9	-0.000305	-0.00412	0.35111	0.000153	-0.022888	0.011444	-0.16342	0.004883	-0.009766	0.014648	-0.02655	0.007935	0.035706	0.032501	-0.06012	0.00824	-0.023956	0.09201	0.00473	0.005035	0.14999	0.11383	-0.27649	0.007019	0.098877	-0.008698	0.68176	-0.005188	-0.5574	0.038452	-0.000458	-0.007477
34.901	0.010529	0.018005	0.37735	0.001221	-0.037384	-0.050354	-0.1918	0.001221	0.005951	-0.012512	-0.027313	0.011292	0.13565	0.05188	-0.10956	0.002594	0.030365	-0.035858	-0.091553	-0.057373	0.066833	-0.045929	-0.23773	-0.097351	0.11856	0.007172	-0.10025	-0.000763	-0.061493	-0.001221	0.000916	-0.006409
34.902	0.005035	0.021362	0.38345	0.023651	-0.037079	-0.093079	-0.19852	-0.003357	-0.005341	-0.045013	-0.000763	0.009003	-0.12741	0.072174	-0.010529	0.007629	0.030975	0.058289	0.021515	-0.11551	0.20508	0.057678	-0.23514	-0.093384	0.13214	0.008392	-0.90271	0.000763	0.10986	-0.14358	0.001068	-0.003357
34.903	0.002289	0.01358	0.4631	0.020752	-0.033569	-0.10605	-0.20111	-0.011444	-0.009613	-0.057983	0.008392	0.007477	-0.012512	0.1207	0.091858	0.001678	0.057068	-0.078278	0.015717	-0.081482	0.18188	0.004272	-0.23041	-0.10498	-0.04776	0.005341	-0.98282	0.001373	0.22415	-0.19394	0.000916	-0.00061
34.904	0.003815	0.016785	0.56686	0.003204	-0.016174	-0.1297	-0.19211	0.004425	-0.028076	-0.027466	0.03952	0.004883	0.094147	0.046539	0.18143	0.011444	0.091248	-0.091858	0.040894	-0.00473	0.17609	-0.13229	-0.23651	-0.092316	-0.23819	0.001678	-1.1377	-0.003967	0.25711	-0.18539	-0.000305	-0.003357
34.905	0.005646	0.050812	0.58563	0.011902	0.010529	-0.17639	-0.17517	-0.012512	-0.02655	-0.001678	0.049286	0.007477	-0.029602	0.025787	-0.02243	0.008087	0.14313	-0.094299	-0.15121	0.098877	0.27924	-0.31799	-0.18356	-0.19272	-0.31189	-0.003357	-0.91827	-0.002289	0.18845	-0.15213	-0.000305	-0.005493
34.906	0.014038	0.053711	0.56519	0.015411	0.032959	-0.12375	-0.16312	-0.008545	-0.021973	0.028839	0.019531	0.013885	-0.067139	0.003204	-0.13702	0.003357	0.20279	-0.15152	-0.075989	0.071716	0.22766	-0.31891	-0.050049	-0.28839	-0.23789	-0.007019	-0.38498	-0.000763	0.004425	-0.12375	0.001068	-0.001984
34.907	0.015106	0.036316	0.5452	-0.006714	0.027771	0.12558	-0.14481	0.002747	-0.050507	-0.002289	0.023499	0.012817	0.056915	-0.052643	-0.11902	0.007629	0.20035	-0.014954	-0.16953	0.090942	-0.006409	-0.16571	-0.07309	-0.43808	-0.1712	-0.009308	-0.032959	-0.001526	-0.062866	-0.077057	-0.001526	0.001831
34.908	0.000153	0.049133	0.53619	0.013275	0.009766	0.1889	-0.12817	-0.002441	-0.063782	0.019531	0.027771	0.01236	0.095062	-0.027008	-0.0737	-0.008545	0.18616	0.073395	-0.31616	0.032043	-0.30289	0.035248	-0.27329	-0.47928	-0.10513	-0.007629	0.10727	-0.000153	-0.10346	-0.06073	-0.001068	0
34.909	-0.004578	0.0737	0.5246	0.015106	0.008087	0.1561	-0.11719	0.00061	-0.06958	0.041504	-0.018616	0.014954	-0.082092	0.058441	-0.047302	0.022736	0.028381	0.18356	-0.28122	0.019836	-0.28748	0.19424	-0.28549	-0.27054	-0.063629	-0.000153	0.27206	-0.001068	-0.088196	-0.048523	0.001526	-0.003357
34.91	-0.003357	0.067749	0.57465	0.01709	0.006561	0.10391	-0.10483	0.002136	-0.079041	0.06546	-0.042572	0.004578	-0.054932	0.045929	0.061646	0.015259	-0.064697	0.13046	-0.23727	0.002594	-0.2092	0.31647	-0.22598	-0.040588	0.10101	0.002747	0.6189	0.001526	-0.056458	-0.044708	0.002289	-0.00412
34.911	0.004883	0.1059	0.58823	0.01236	0.011597	0.050964	-0.1062	0.000305	-0.067902	-0.0177	0.041046	0.007172	-0.10071	-0.071869	0.21561	0.008545	-0.079651	0.093079	-0.42709	-0.028839	0.024567	0.44235	-0.090027	0.40466	0.18524	0.002289	0.57632	0.001526	0.000153	0.032959	0.003052	-0.002747
34.912	-0.00061	0.14526	0.61432	-0.005493	0.020752	-0.014343	-0.11551	0.004272	-0.05722	-0.11322	-0.007019	0.005188	-0.13275	-0.049286	0.060883	0.008545	-0.10407	0.17151	-0.73135	-0.021515	0.3125	0.41901	-0.12344	0.46356	0.21378	0.001373	0.44449	0.00061	0.014496	0.085449	0	-0.001984
34.913	0.005646	0.11246	0.57648	0.005188	0.039978	-0.10468	-0.1442	0.002594	-0.07019	-0.055695	-0.11932	0.006561	-0.07431	0.005341	0.015717	0.00351	-0.12238	0.079651	-0.86716	-0.027618	0.33951	0.42648	-0.39047	0.37781	0.30685	-0.006714	0.29083	-0.004883	-0.07431	0.13184	0.002747	-0.009308
34.914	0.00824	0.049896	0.58258	0.011444	0.042877	-0.056305	-0.16449	0.003967	-0.060425	-0.29938	-0.021362	0.00351	-0.13428	-0.060883	0.10162	-0.005798	-0.06485	-0.011292	-0.30884	-0.084839	0.34988	0.3418	-0.39917	0.33676	0.31326	-0.007172	-0.34531	0.005493	-0.074005	0.11108	0.001526	-0.013428
34.915	0.007172	0.043793	0.55359	0.015259	0.031586	-0.02533	-0.15778	-0.002747	-0.053558	-0.51971	0.032654	0.009308	-0.068665	-0.056458	-0.018311	-0.028076	-0.0177	-0.077209	0.46493	-0.033569	0.19486	0.14343	-0.17548	0.28946	0.27603	-0.002899	-1.3417	0.00351	0.003357	0.10284	-0.002899	-0.009613
34.916	0.00351	0.072021	0.52506	0.018921	-0.003357	0.011597	-0.10208	-0.006409	-0.058594	-0.4483	0.13199	0.003357	0.076752	-0.046082	-0.066986	-0.036774	0.018463	-0.23315	0.26657	0.011444	0.11368	-0.13397	-0.11673	0.18677	0.25879	0.002594	-1.346	0.003204	0.14069	0.10925	-0.001678	-0.013733
34.917	0.008087	0.032806	0.5574	0.014648	-0.036621	0.00885	-0.10468	-0.005341	-0.056763	-0.19836	0.12573	-0.000458	0.11704	-0.007782	-0.070953	0.078125	0.04364	-0.23544	-0.046692	0.019073	0.036163	-0.24231	-0.1944	0.12131	0.2475	0.002747	-0.95764	0.004272	0.10483	0.057678	0.001831	-0.010071
34.918	0.007629	0.014191	0.56442	0.003357	-0.038147	0.001678	-0.091705	-0.001984	-0.062256	0.26321	0.052795	0.000458	0.097198	0.12421	-0.051422	0.10376	0.12146	-0.16983	-0.13001	-0.010071	0.06424	-0.29083	-0.27557	-0.099182	0.22156	-0.004578	-0.4155	0.005798	0.12955	0.018616	-0.00061	-0.00473
34.919	0.005493	0.033722	0.51758	0.023804	-0.019226	-0.042267	-0.07431	0.008392	-0.048828	0.51285	0.011597	0.004272	0.039673	0.011749	-0.16586	-0.14008	0.20157	-0.19089	-0.28	-0.035706	-0.06012	-0.42297	-0.3009	-0.38483	0.15198	0	-0.2478	0.006409	0.13107	-0.005341	-0.002747	-0.006714
34.92	0.006409	0.033112	0.5394	0.013123	0.017548	-0.10651	-0.080872	0.000153	-0.045471	0.056	-0.048981	-0.000458	0.082397	-0.14862	0.18539	0.11658	0.2298	-0.19363	-0.24918	-0.02182	-0.06958	-0.43564	-0.19119	-0.37933	0.080872	-0.006104	-0.10788	0.008545	0.22537	0.086212	-0.003052	0.00351
34.921	0.018005	0.033875	0.53497	-0.001068	0.044861	-0.18005	-0.076447	-0.00061	-0.052185	0.036469	-0.084534	0.020294	0.042114	-0.12466	0.19089	0.2359	0.18463	-0.13657	-0.22186	-0.038452	-0.1593	-0.41657	-0.080872	-0.41962	0.3183	-0.003662	0.11688	0.014954	0.21652	0.052948	0.000153	-0.002594
34.922	0.016479	0.023193	0.5545	-0.000305	0.02655	-0.1767	-0.068817	0.004883	-0.057983	0.66361	-0.084839	0.080261	-0.034332	-0.15503	-0.005798	-0.090027	0.049438	-0.14145	-0.32883	0.041199	-0.62332	-0.48966	-0.09613	-0.39764	0.54245	-0.008087	0.24292	0.008392	-0.46341	0.005341	0.006866	-0.000153
34.923	0.010986	0.037231	0.54367	0.010071	0.018463	-0.14801	-0.047455	0.005341	-0.061951	1.0654	-0.081329	0.027466	-0.035248	-0.025024	-0.12787	-0.19379	-0.12894	-0.27634	-0.62729	0.036621	-0.41901	-0.31403	-0.11581	-0.21988	0.59021	-0.008545	0.16663	0.005646	-0.20813	0.016022	-0.000458	0
34.924	0.010529	0.017548	0.55328	0.011749	0.005798	-0.082245	-0.036316	0.005341	-0.056458	0.76126	-0.025177	-0.084229	0.071716	0.14801	-0.14725	-0.12161	-0.14221	-0.39322	-0.57098	-0.009003	-0.25635	-0.14465	-0.11566	-0.009155	0.35294	-0.008392	0.14313	0.005493	-0.070496	0.036469	0.00061	0.000153
34.925	0.004578	0.007477	0.53833	0.014343	0.012054	-0.052948	-0.034332	0.000916	-0.044403	-0.18219	-0.01358	0.003204	0.057678	0.14969	-0.044556	-0.036469	-0.090027	-0.42557	-0.65262	0.031586	0.22705	-0.096741	-0.036163	-0.018616	-0.020142	-0.003967	0.13657	0.014343	-0.071716	0.058746	0.001831	-0.008698
34.926	0.008698	0.068665	0.54077	-0.00412	0.007172	-0.065765	-0.042267	-0.00061	-0.020294	-0.27115	0.000916	0.019989	-0.004272	0.074921	-0.029144	-0.012512	0.014343	-0.40451	-0.22995	0.066071	0.26993	-0.094452	-0.008545	-0.1442	-0.28915	-0.000305	0.11871	0.006866	-0.080109	0.069427	0.003662	-0.015259
